<?xml version="1.0" encoding="UTF-8" standalone="no"?>
<svg
   inkscape:version="1.1 (c4e8f9ed74, 2021-05-24)"
   id="svg8"
   version="1.1"
   viewBox="0 0 1058.3333 1058.3334"
   height="4000"
   width="4000"
   sodipodi:docname="sn-map.svg"
   inkscape:export-filename="/home/famellad/Sources/GitHub/famellad.github.io/sn/img/sn-map.png"
   inkscape:export-xdpi="48"
   inkscape:export-ydpi="48"
   xmlns:inkscape="http://www.inkscape.org/namespaces/inkscape"
   xmlns:sodipodi="http://sodipodi.sourceforge.net/DTD/sodipodi-0.dtd"
   xmlns:xlink="http://www.w3.org/1999/xlink"
   xmlns="http://www.w3.org/2000/svg"
   xmlns:svg="http://www.w3.org/2000/svg"
   xmlns:rdf="http://www.w3.org/1999/02/22-rdf-syntax-ns#"
   xmlns:cc="http://creativecommons.org/ns#"
   xmlns:dc="http://purl.org/dc/elements/1.1/">
  <defs
     id="defs2">
    <linearGradient
       inkscape:collect="always"
       id="linearGradient7415">
      <stop
         style="stop-color:#78884e;stop-opacity:1;"
         offset="0"
         id="stop7411" />
      <stop
         style="stop-color:#4e885e;stop-opacity:1"
         offset="1"
         id="stop7413" />
    </linearGradient>
    <linearGradient
       inkscape:collect="always"
       id="linearGradient4156">
      <stop
         style="stop-color:#04dbb5;stop-opacity:1;"
         offset="0"
         id="stop4152" />
      <stop
         style="stop-color:#4e885e;stop-opacity:1"
         offset="1"
         id="stop4154" />
    </linearGradient>
    <inkscape:path-effect
       effect="rough_hatches"
       id="path-effect5155"
       is_visible="true"
       lpeversion="1"
       direction="346.69887,697.25883 , 20.109725,0"
       dist_rdm="75;1"
       growth="0"
       do_bend="true"
       bender="346.69887,702.25883 , 5,0"
       bottom_edge_variation="6.26;1"
       top_edge_variation="7.56;1"
       bottom_tgt_variation="0;1"
       top_tgt_variation="0;1"
       scale_bf="1"
       scale_bb="1"
       scale_tf="1"
       scale_tb="1"
       top_smth_variation="0;1"
       bottom_smth_variation="0;1"
       fat_output="true"
       stroke_width_top="1"
       stroke_width_bottom="1"
       front_thickness="1"
       back_thickness="0.25" />
    <linearGradient
       inkscape:collect="always"
       xlink:href="#linearGradient4156"
       id="linearGradient4158"
       x1="278.06247"
       y1="559.12292"
       x2="282.41779"
       y2="559.44238"
       gradientUnits="userSpaceOnUse" />
    <linearGradient
       inkscape:collect="always"
       xlink:href="#linearGradient7415"
       id="linearGradient7417"
       x1="347.40424"
       y1="503.48724"
       x2="346.97943"
       y2="507.50354"
       gradientUnits="userSpaceOnUse" />
  </defs>
  <sodipodi:namedview
     showborder="true"
     inkscape:showpageshadow="true"
     inkscape:pagecheckerboard="false"
     units="px"
     showgrid="true"
     inkscape:document-rotation="0"
     inkscape:current-layer="layer6"
     inkscape:document-units="mm"
     inkscape:cy="1029.7243"
     inkscape:cx="1858.365"
     inkscape:zoom="0.22627417"
     inkscape:pageshadow="2"
     inkscape:pageopacity="0"
     borderopacity="1"
     bordercolor="#363636"
     pagecolor="#384c5c"
     id="base"
     inkscape:window-width="1920"
     inkscape:window-height="1054"
     inkscape:window-x="0"
     inkscape:window-y="26"
     inkscape:window-maximized="1"
     inkscape:snap-bbox="true"
     inkscape:snap-bbox-midpoints="true"
     inkscape:snap-intersection-paths="true"
     inkscape:snap-page="true"
     inkscape:snap-center="true"
     inkscape:snap-global="false"
     inkscape:object-paths="true">
    <inkscape:grid
       type="xygrid"
       id="grid844"
       empspacing="10"
       color="#9f9f9f"
       opacity="0.1254902"
       empcolor="#9f9f9f"
       empopacity="0.20784314"
       enabled="false"
       spacingx="26.458334"
       spacingy="26.458334" />
  </sodipodi:namedview>
  <metadata
     id="metadata5">
    <rdf:RDF>
      <cc:Work
         rdf:about="">
        <dc:format>image/svg+xml</dc:format>
        <dc:type
           rdf:resource="http://purl.org/dc/dcmitype/StillImage" />
      </cc:Work>
    </rdf:RDF>
  </metadata>
  <g
     inkscape:groupmode="layer"
     id="layer4"
     inkscape:label="Biomes"
     style="display:inline">
    <path
       style="fill:#d40032;fill-opacity:0.3;stroke:none;stroke-width:0.264583px;stroke-linecap:butt;stroke-linejoin:miter;stroke-opacity:1"
       d="m 494.23115,462.14406 -1.01837,25.12675 -1.37798,8.38373 -2.44912,9.50764 -1.47231,3.41848 -10.52255,6.83705 -8.90863,8.46511 -7.54116,3.33285 -1.09656,11.49159 -7.09108,1.79668 -9.70276,4.65863 0.59454,8.17159 -3.04218,6.48217 -2.01692,10.9022 -8.98795,-2.57044 -5.8416,-7.57779 -1.69792,-15.50148 -5.30306,-22.12293 -5.50172,-5.05821 -18.82407,-21.0579 -8.69693,-4.16553 2.41401,-9.01981 -14.85843,-4.62724 -16.02181,2.27258 -14.94213,-2.23485 -1.59912,15.04985 -14.80551,3.23231 -8.02801,0.12731 -11.99914,-7.11423 -8.01133,-2.25089 -3.54932,-7.4419 -8.60533,-12.24299 10.95854,-3.77307 -9.26921,-24.36931 12.26288,-3.57916 5.00897,-12.35272 -26.6567,-37.91612 34.96615,-4.57424 38.35325,22.33921 50.01316,-5.14651 7.98686,-6.82926 20.45488,-7.74772 16.15143,-16.19551 6.43389,16.16143 -13.29298,22.05093 6.39876,44.59359 14.79582,30.77152 22.6041,1.61326 3.40559,-3.30045 z"
       id="path5121"
       sodipodi:nodetypes="cccccccccccccccccccccccccccccccccccccccccccccccccc" />
    <g
       id="g6547"
       transform="translate(-1.9580309,-1.9578977)">
      <path
         style="fill:#63974c;fill-opacity:1;stroke:none;stroke-width:0.264583px;stroke-linecap:butt;stroke-linejoin:miter;stroke-opacity:1"
         d="m 371.30262,707.32342 c 0.55178,-0.86331 7.62598,0.98387 10.05417,0.26459 2.42819,-0.71928 3.16042,-1.29736 4.23333,-2.91039 1.07291,-1.61303 1.37345,-4.40323 1.32289,-6.35 -0.0506,-1.94677 -1.38808,-3.50656 -1.32289,-5.02709 0.0652,-1.52053 1.2816,-1.8495 1.32289,-3.70416 0.0413,-1.85466 -0.66208,-5.19513 -2.11667,-6.87914 -1.45459,-1.68401 -3.66081,-0.83193 -5.55622,-2.64589 -1.89541,-1.81396 -3.11771,-6.80181 -4.49794,-8.46667 -1.38023,-1.66486 -0.96719,-1.45972 -2.64581,-2.11664 -1.67862,-0.65692 -5.31795,0.42539 -7.40836,-0.52916 -2.09041,-0.95455 -3.01807,-3.52217 -4.49789,-4.49795 -1.47982,-0.97578 -2.59535,-1.18816 -3.96875,-1.58744 -1.3734,-0.39928 -2.44974,-0.73937 -4.23333,-0.79378 -1.78359,-0.0544 -4.1498,-0.49182 -6.35,0.79378 -2.2002,1.2856 -2.33355,5.88304 -5.29167,7.14372 -2.95812,1.26068 -7.64342,-1.40418 -10.31875,-1.32294 -2.67533,0.0812 -3.96459,0.54425 -5.55625,1.05836 -1.59166,0.51411 -2.60744,1.84918 -3.96875,1.85205 -1.36131,0.003 -1.77199,-1.29326 -3.43961,-1.58747 -1.66762,-0.29421 -4.70779,-0.39068 -6.34997,0.52917 -1.64218,0.91985 -2.15686,2.31744 -2.91042,3.96875 -0.75356,1.65131 -1.31335,3.78802 -1.32292,5.8208 -0.01,2.03278 0.24909,4.31441 1.32292,6.08545 1.07383,1.77104 3.1359,2.04982 4.7625,3.96875 1.6266,1.91893 3.32471,6.15443 4.49789,7.67291 1.17318,1.51848 0.65634,1.04249 1.85211,1.85206 1.19577,0.80957 4.33241,1.26184 5.55625,2.38128 1.22384,1.11944 0.72492,2.27709 1.85208,3.43958 1.12716,1.16249 3.61535,1.55207 5.02706,2.91042 1.41171,1.35835 1.25792,3.10343 3.17503,5.02708 1.91711,1.92365 6.87396,3.76386 8.73122,5.55622 1.85726,1.79236 1.6747,2.42603 2.91044,4.23334 1.23574,1.80731 2.74879,4.93888 4.49792,6.6146 1.74913,1.67572 3.70446,1.69377 5.55625,3.43959 1.85179,1.74582 3.12006,5.70264 5.02706,7.14375 1.907,1.44111 3.29173,1.68017 5.29169,1.85211 1.99996,0.17194 4.63093,-0.21357 6.34997,-1.05836 1.71904,-0.84479 2.77839,-2.16859 3.70417,-3.43959 0.92578,-1.271 0.76785,-3.06033 1.85211,-3.96875 1.08426,-0.90842 2.5631,-0.0388 3.96875,-1.05833 1.40565,-1.01953 2.74111,-3.43115 3.43958,-5.29169 0.69847,-1.86054 0.9423,-3.74825 0.79373,-5.55623 -0.14857,-1.80798 -0.3344,-3.32434 -1.5875,-5.02708 -1.2531,-1.70274 -3.88861,-3.21143 -6.08542,-4.23333 -2.19681,-1.0219 -6.15774,-1.63035 -6.87914,-1.85211 -0.51173,-0.15731 -1.34553,-2.84086 -0.79375,-3.70417 z"
         id="path2247"
         sodipodi:nodetypes="zzzzzzzzzzzzzzzzzzzzzzzzzzzzzzzzzzzzzzzzzzzzzsz" />
      <path
         style="fill:#426785;fill-opacity:1;stroke:none;stroke-width:0.264583px;stroke-linecap:butt;stroke-linejoin:miter;stroke-opacity:1"
         d="m 357.73479,702.5963 c 3.88475,1.96165 7.51496,1.0306 8.19698,0.38767 0.68204,-0.64291 0.85236,-4.44352 1.05905,-6.26253 0.20672,-1.81901 0.45945,-5.03217 -0.40719,-5.4854 -0.86665,-0.45323 -3.69332,-2.19199 -5.7217,-0.75226 -2.02835,1.43973 -2.56656,4.30726 -2.44255,5.74834 0.12403,1.44108 -0.75121,2.88747 -1.04061,4.16906 -0.28937,1.28157 0.35602,2.19512 0.35602,2.19512 z"
         id="path3694" />
    </g>
    <path
       style="fill:#63974c;fill-opacity:1;stroke:none;stroke-width:0.264583px;stroke-linecap:butt;stroke-linejoin:miter;stroke-opacity:1"
       d="m 643.28325,215.04787 c 4.78906,0.72052 6.50879,-3.0781 8.84666,-4.37629 2.33787,-1.29819 4.60313,-1.57272 5.24992,-3.25062 0.64679,-1.6779 -1.90977,-3.73592 -1.27773,-4.43427 0.63204,-0.69835 9.54014,5.80459 10.67028,4.40979 1.13014,-1.3948 0.78123,-7.61275 0.33186,-9.34787 -0.44937,-1.73512 -3.85277,-0.78431 -4.68431,-1.4619 -0.83154,-0.67759 -9.62665,-11.24017 -11.67929,-15.03423 -2.05264,-3.79406 -2.75718,-4.31452 -2.22684,-6.47225 0.53034,-2.15773 5.39168,-1.76959 5.2428,-4.45688 -0.14888,-2.68729 -6.09354,-13.15827 -7.25805,-14.62103 -1.16451,-1.46276 -2.23351,-2.54992 -2.15466,-3.86386 0.0788,-1.31394 2.61401,-6.40611 4.39486,-9.54522 1.78085,-3.13911 4.2183,-6.86519 6.29893,-9.19557 2.08063,-2.33038 4.06447,-3.07124 5.21467,-4.97407 1.1502,-1.90283 1.48172,-3.79378 1.31083,-5.59082 -0.17089,-1.79704 -1.3672,-3.44286 -2.07449,-4.64638 -0.70729,-1.20352 -0.74678,-1.63469 -1.97033,-2.63141 -1.22355,-0.99672 -2.79213,-2.53738 -5.59509,-2.62792 -2.80296,-0.0905 -6.87688,2.9675 -9.90714,3.89427 -3.03026,0.92677 -5.0598,1.50163 -8.16784,1.81863 -3.10804,0.317 -7.46756,-0.4802 -10.37585,-0.16397 -2.90829,0.31623 -6.23093,-0.13253 -7.51166,1.65275 -1.28073,1.78528 -0.0572,3.96239 0.56253,5.98112 0.61972,2.01873 2.55608,3.9953 3.20559,5.84091 0.64951,1.84561 0.1361,3.43313 0.88305,4.99926 0.74695,1.56613 2.76934,2.30572 3.49808,4.02699 0.72874,1.72127 0.0145,3.76863 0.50371,5.85933 0.48924,2.0907 3.62013,5.01853 2.55807,6.51815 -1.06206,1.49962 -3.30639,-0.96903 -4.021,-0.14332 -0.71461,0.82571 0.0752,1.34708 0.45175,2.48773 0.37659,1.14065 2.2179,3.25162 2.06936,4.19637 -0.14854,0.94475 -1.51765,2.01064 -1.66844,3.34192 -0.15079,1.33128 3.03586,5.47665 2.38832,6.65697 -0.64754,1.18032 -5.26462,0.66312 -6.1875,1.7028 -0.92288,1.03968 0.15005,6.14029 -0.79914,7.52895 -0.94919,1.38866 -4.15407,3.4339 -5.80951,4.39321 -1.65544,0.95931 -3.30433,0.52906 -3.86022,1.64548 -0.55589,1.11642 -0.374,2.55085 0.79365,3.18943 1.16765,0.63858 3.14547,-2.21721 4.451,-1.5047 1.30553,0.71251 0.27795,2.46327 1.02746,4.09854 0.74951,1.63527 2.5751,3.49793 3.78349,5.36847 1.20839,1.87054 2.26286,4.39816 3.45331,5.85058 1.19045,1.45242 2.2685,3.06206 3.33145,2.98629 1.06295,-0.0758 1.22082,-3.12554 2.77363,-3.29709 1.55281,-0.17155 9.14477,12.47121 13.93383,13.19173 z"
       id="path931"
       sodipodi:nodetypes="zzzzzzzzzzzzzzzzzzzzzzzzzzzzzzzzzzzzzzzzzzzzzz" />
    <path
       style="fill:#d60033;fill-opacity:0.3;stroke:none;stroke-width:0.264583px;stroke-linecap:butt;stroke-linejoin:miter;stroke-opacity:1"
       d="m 615.765,428.32313 8.03052,-11.45463 14.91692,-3.64236 21.73235,-6.90653 16.23181,-9.25509 4.5211,-10.91534 -6.20565,-6.97555 4.69834,-14.68062 -9.09082,-6.83252 -4.83933,-10.12163 9.36135,-11.27022 -24.07263,-6.43218 -12.729,-5.45317 9.29857,-3.67567 -1.06125,-6.88417 20.856,-5.03587 -16.57202,-13.19575 -3.99772,-12.3559 -9.31366,-2.61554 -0.80883,5.42411 -15.63733,-3.00297 -1.24652,2.97892 -8.18682,2.98374 -7.22402,-2.78051 -4.30189,7.1075 3.94163,5.75216 -3.6993,3.49426 -5.22298,5.16366 -5.68537,-10.67654 -1.13159,26.02529 2.04335,2.60368 2.9859,10.48787 -4.87497,6.3612 9.82159,4.81692 -9.05695,9.04232 -1.03584,10.40903 3.08464,11.59668 6.04594,7.87562 0.50382,10.94412 -2.35937,20.04679 9.42809,9.18702 2.85988,0.48659 z"
       id="path1557"
       sodipodi:nodetypes="ccccccccccccccccccccccccccccccccccccccccccc" />
    <path
       style="display:inline;fill:#187b00;fill-opacity:0.30000001;stroke:none;stroke-width:0.264583px;stroke-linecap:butt;stroke-linejoin:miter;stroke-opacity:1"
       d="m 583.44179,432.22471 11.6164,13.47383 -7.9292,13.33307 -10.8735,9.91637 -14.80836,4.13369 -13.99344,6.60747 -14.86715,1.92206 -13.12804,-5.09058 -2.36543,-11.40939 12.58041,-4.07482 9.58847,1.29746 12.98133,5.5416 16.45362,-3.2329 1.08725,-5.70454 0.99248,-20.18663 z"
       id="path3418" />
    <path
       style="fill:#177c00;fill-opacity:0.298039;stroke:none;stroke-width:0.264583px;stroke-linecap:butt;stroke-linejoin:miter;stroke-opacity:1"
       d="m 573.04386,362.83939 8.17124,-3.02048 8.03068,-3.41691 9.05695,-9.04232 -9.82159,-4.81692 4.87497,-6.3612 -2.9859,-10.48787 -2.04335,-2.60368 1.13159,-26.02529 5.68537,10.67654 5.22298,-5.16366 3.6993,-3.49426 -3.94163,-5.75216 4.30189,-7.1075 7.22402,2.78051 8.18682,-2.98374 1.24652,-2.97892 15.63733,3.00297 0.80883,-5.42411 9.31366,2.61554 3.91731,3.17751 12.6887,4.48162 5.93768,-0.78145 7.65934,-7.25442 6.77066,-3.44178 -3.17624,-8.44206 9.21903,-2.8371 5.21227,-10.58226 0.39743,-10.91903 -5.61306,-8.42487 -8.32133,-0.70967 -16.83914,2.80518 13.4648,-9.1808 -14.68752,1.49862 -8.98551,0.11389 -15.02111,0.46651 -11.44585,3.87278 -19.16065,-14.70075 -13.06936,-20.57146 -17.23953,-6.65561 -11.26477,5.06791 -1.34726,22.93675 -2.88848,11.13049 0.3108,11.61877 0.82064,16.25083 -5.9548,13.9749 -15.11294,0.83937 -16.65269,1.86208 -8.69916,-1.04428 -5.78609,-10.67903 -12.95424,3.69093 -1.82354,12.25913 1.84272,10.46924 7.1342,1.99927 11.88678,12.44815 13.14151,10.2952 9.28618,4.71956 11.8826,-1.46254 10.81193,0.90916 -0.0843,6.97807 2.28465,10.43495 -0.16518,10.56072 z"
       id="path1027"
       sodipodi:nodetypes="ccccccccccccccccccccccccccccccccccccccccccccccccccccccccccccccc" />
    <path
       style="fill:#177c00;stroke:none;stroke-width:0.264583px;stroke-linecap:butt;stroke-linejoin:miter;stroke-opacity:1;fill-opacity:0.29803923"
       d="m 491.8348,495.65454 1.37798,-8.38373 4.95538,-2.91377 2.23745,1.71336 -3.75497,12.2687 -0.0172,8.12411 -2.07745,7.50414 1.57069,7.40048 3.00244,12.69113 6.78183,9.99506 6.28788,3.68573 8.80276,1.5594 3.86533,-1.05762 4.02113,-5.66206 17.00861,-15.64454 3.18296,-7.75962 8.45185,-2.48084 9.75741,-7.15812 6.99651,-1.96228 6.13122,-4.99068 -0.0981,6.99696 -0.88951,3.05848 -3.98356,4.7525 1.93807,5.24221 -6.14569,10.65755 -12.21547,10.22943 -5.24467,4.51072 -11.70432,5.43928 -7.09097,0.73107 -6.4042,7.95822 -4.20152,-0.66676 -2.55241,3.77474 -11.19626,4.51506 c 0,0 -5.54072,-4.56999 -5.61668,-4.36296 -0.076,0.20704 -1.67648,7.97246 -1.67648,7.97246 l -7.43432,2.63855 -9.37032,7.97103 -8.78644,6.78293 -6.97339,-1.25798 -0.24209,-12.65066 -4.78219,1.44256 -5.47028,4.04762 -4.18579,-12.96297 -1.00119,-11.63984 -9.38659,1.28667 1.81422,-6.37079 -4.46583,-7.5169 9.70276,-4.65863 7.09108,-1.79668 1.09656,-11.49159 7.54116,-3.33285 8.90863,-8.46511 10.52255,-6.83705 1.47231,-3.41848 z"
       id="path5677"
       sodipodi:nodetypes="cccccccccccccccccccccccccccccccccsccccccccccccccccccccc" />
    <path
       style="fill:#a74100;stroke:none;stroke-width:0.264583px;stroke-linecap:butt;stroke-linejoin:miter;stroke-opacity:1;fill-opacity:0.29803899"
       d="m 228.99917,309.11908 4.38999,-17.47488 5.02875,-21.44718 -1.771,-8.43519 -11.79284,-4.84912 -4.40538,-12.61781 1.86946,-15.33111 10.29145,-12.72568 9.36763,-9.66768 10.75215,-5.17547 9.96357,-6.21274 -3.55361,-8.93043 0.4973,-7.54441 6.01452,-9.66474 12.35588,-7.03427 11.0008,-12.71039 20.84231,-11.40624 18.69443,-1.09556 8.3045,11.4125 -8.47754,15.372 -7.12571,16.74157 -8.25441,6.4986 3.4577,5.49823 16.79597,3.00614 13.16497,-14.56677 17.48965,-5.47733 11.34237,-0.16243 6.62231,5.6459 3.36555,8.61661 14.5919,-0.18661 -2.75227,12.13612 9.01986,3.40246 -10.97767,10.68317 -9.12281,4.98684 2.26121,5.7928 -7.06572,0.58612 2.11164,3.74493 -0.3592,4.03678 -3.05983,3.77131 3.90758,2.9067 -3.02935,4.72579 2.7028,4.06236 3.95843,1.7502 0.10951,5.25955 11.00651,6.30696 9.3636,1.72949 6.98209,14.66929 -6.4108,8.62344 -4.57763,7.62365 -5.17718,4.41198 -6.07386,15.79184 -11.63341,0.31379 -12.28857,-1.87692 -6.98545,6.93396 -12.27434,8.47958 -11.65688,0.97991 -10.24223,9.65136 -11.81238,-0.0828 -4.79949,6.813 -18.11462,3.74049 -12.07815,-11.63899 -6.79735,-5.96681 0.0935,-14.82762 -12.06205,-2.94616 -17.45966,-7.74136 z"
       id="path5705" />
  </g>
  <g
     inkscape:groupmode="layer"
     id="layer2"
     inkscape:label="Aurora"
     style="display:inline">
    <path
       style="fill:none;stroke:#7f6857;stroke-width:2.64583;stroke-linecap:butt;stroke-linejoin:round;stroke-miterlimit:4;stroke-dasharray:none;stroke-opacity:1"
       d="m 872.33357,536.62622 -0.29819,-12.67415 2.16649,-2.97612 19.28775,-22.48003 4.03289,-8.44764 1.84817,-5.38779 0.33369,-2.25399 -0.62646,-1.83983 7.65996,-2.14003 3.12465,-8.23894 5.91555,-3.50665 2.70145,-2.67359 0.43815,-5.52029 -0.56359,-9.24635 14.89146,-13.42974 2.89354,-15.16417 -18.84323,7.76888 -21.33147,-20.68751 -14.29353,-9.00202 1.62335,-31.46584 -7.16204,-6.20443 -15.26227,14.30637 -12.20547,0.063 -14.26872,17.00543 -22.50262,-19.98946 23.19999,-15.55689 14.88799,-8.60726 -1.52529,-2.43969 -15.10469,8.609 -23.94474,15.86828 -19.84349,17.64072 -6.37005,5.3145 -10.59506,8.33062 -8.18293,6.64053 -14.03287,12.22747 -11.15158,9.74966 -8.63689,7.93171 -2.85328,2.26221 0.18869,2.8067 -6.97925,5.33436 -8.64655,-1.16193 -3.56258,2.11973 1.12622,7.51087 -5.32584,2.0685 -0.23318,3.02532 -3.4641,3.62524 -1.5181,3.99635 -4.34027,1.23126 -0.73687,3.56469 -3.71636,0.68552 -5.80003,2.72257 -0.54203,2.35485 -10.41205,3.58565 -1.25689,0.88376 1.34117,3.74146 15.36292,-2.44101 -19.58484,18.06241"
       id="path3904"
       sodipodi:nodetypes="ccccccccccccccccccccccccccccccc" />
  </g>
  <g
     inkscape:groupmode="layer"
     id="layer7"
     inkscape:label="Tartarus"
     style="display:none">
    <rect
       style="fill:#000000;fill-opacity:0.8;stroke:none;stroke-width:2.64583;stroke-linecap:butt;stroke-linejoin:round;stroke-miterlimit:4;stroke-dasharray:none;stroke-opacity:1;paint-order:stroke fill markers"
       id="rect10845"
       width="1058.3334"
       height="1058.3334"
       x="0"
       y="0" />
    <path
       style="fill:#4e885e;fill-opacity:1;stroke:none;stroke-width:0.264583px;stroke-linecap:butt;stroke-linejoin:miter;stroke-opacity:1"
       d="m 330.16078,507.74507 -1.27793,13.55458 -5.02735,12.96847 -7.46871,5.04915 -4.49911,2.7328 -8.81597,8.10096 -3.72846,-5.12505 -5.4344,-4.19654 -6.72896,5.18762 -3.1713,7.35794 -0.63126,3.58723 0.27503,7.11709 0.56543,3.60362 17.32692,11.08915 7.26873,2.06928 5.91008,13.21261 15.37097,-0.53343 -0.87111,9.27978 4.65719,5.74195 5.70966,4.97355 6.33357,4.90283 6.75933,3.27279 8.58465,-0.21084 6.79852,-2.53715 3.82988,-7.5812 0.29257,-9.33102 -3.266,-9.92586 -6.92792,-8.3905 -7.20597,-2.44747 -7.62845,-0.942 -12.35679,-15.55184 -0.96715,-9.01322 5.15006,-8.95392 7.25709,-6.71624 2.52506,-13.70589 3.47255,-1.19917 0.15642,-6.76209 4.08762,-4.58552 0.95133,-4.68772 z"
       id="path9373"
       sodipodi:nodetypes="cccccccccccccccccccccccccccccccccccccccc" />
    <path
       style="fill:#04dbb5;fill-opacity:1;stroke:none;stroke-width:0.264583px;stroke-linecap:butt;stroke-linejoin:miter;stroke-opacity:1"
       d="m 273.62448,583.7811 -15.1903,-2.50597 -4.83966,1.11175 -11.07214,-0.81665 -0.7625,-1.54458 4.14714,-3.37249 -0.13078,-1.54584 -4.54788,-1.88541 -0.16632,-2.71586 6.21679,-5.94785 -3.55222,-8.74456 6.14269,-8.78112 -0.0952,-13.77757 17.15544,8.50503 3.58026,5.17615 6.89886,4.75509 0.30578,5.03325 -0.67821,5.53097 -1.98012,3.15068 -1.42027,4.27704 1.01042,4.74396 -0.1551,4.57484 0.48569,4.03094 z"
       id="path925"
       sodipodi:nodetypes="cccccccccccccccccccccccc" />
    <path
       style="fill:url(#linearGradient4158);fill-opacity:1;stroke:none;stroke-width:0.27546px;stroke-linecap:butt;stroke-linejoin:miter;stroke-opacity:1"
       d="m 274.67172,565.40611 10.02233,2.50363 -0.70477,-3.83044 -0.29811,-7.11708 0.68424,-3.58722 -7.18556,-1.76633 0.36327,5.1158 -0.7351,5.53095 z"
       id="path4150"
       sodipodi:nodetypes="ccccccccc" />
    <path
       style="fill:#78884e;fill-opacity:1;stroke:none;stroke-width:0.264583px;stroke-linecap:butt;stroke-linejoin:miter;stroke-opacity:1"
       d="m 363.26594,503.85426 -32.22988,-4.21321 -8.40156,-10.41158 2.83107,-12.71256 -7.38153,-13.47044 -2.4351,-9.05778 -11.27254,-9.72031 -6.62289,-23.27974 -17.98082,-2.20956 -5.12178,-7.50903 7.22352,-6.16429 -0.27527,-10.06044 12.15805,-11.15436 18.00368,0.99058 8.53485,8.02764 18.80103,0.29451 18.28578,7.48702 12.3866,7.33031 12.11929,-3.7284 8.6456,16.36506 4.00341,4.76789 12.46492,-3.16949 15.68225,3.20542 -3.46892,15.44789 -15.20275,24.35862 -2.6344,20.62676 -22.17965,8.88288 -10.39942,4.00744 z"
       id="path5637"
       sodipodi:nodetypes="ccccccccccccccccccccccccccccc" />
    <path
       style="fill:url(#linearGradient7417);fill-opacity:1;stroke:none;stroke-width:0.275217px;stroke-linecap:butt;stroke-linejoin:miter;stroke-opacity:1"
       d="m 357.20572,509.72161 6.06021,-5.91172 -32.22988,-4.55868 -0.91272,8.78174 z"
       id="path7311"
       sodipodi:nodetypes="ccccc" />
  </g>
  <g
     inkscape:groupmode="layer"
     id="layer6"
     inkscape:label="tmp"
     style="display:inline;opacity:0.669239" />
  <g
     inkscape:groupmode="layer"
     id="layer3"
     inkscape:label="Grid"
     style="display:inline"
     sodipodi:insensitive="true">
    <path
       style="display:inline;fill:none;stroke:#f9f9f9;stroke-width:1.32292;stroke-linecap:butt;stroke-linejoin:miter;stroke-miterlimit:4;stroke-dasharray:none;stroke-opacity:1"
       d="M 529.16667,1.1666667e-5 V 1058.3333"
       id="path3018" />
    <path
       style="display:inline;fill:none;stroke:#f9f9f9;stroke-width:1.32292;stroke-linecap:butt;stroke-linejoin:miter;stroke-miterlimit:4;stroke-dasharray:none;stroke-opacity:1"
       d="M 1058.3333,529.16666 H 2.5833333e-5"
       id="path3018-6" />
    <path
       style="fill:none;stroke:#f6f6f6;stroke-width:0.79375;stroke-linecap:butt;stroke-linejoin:miter;stroke-miterlimit:4;stroke-dasharray:none;stroke-opacity:1"
       d="M 0,793.74999 H 264.58331 1058.3333"
       id="path3774" />
    <path
       style="fill:none;stroke:#f6f6f6;stroke-width:0.79375;stroke-linecap:butt;stroke-linejoin:miter;stroke-miterlimit:4;stroke-dasharray:none;stroke-opacity:1"
       d="M 3.1506666e-5,264.58331 H 264.58334 1058.3333"
       id="path3774-7" />
    <path
       style="fill:none;stroke:#f6f6f6;stroke-width:0.79375;stroke-linecap:butt;stroke-linejoin:miter;stroke-miterlimit:4;stroke-dasharray:none;stroke-opacity:1"
       d="M 793.74999,1058.3333 V 793.75 1e-5"
       id="path3774-5" />
    <path
       style="fill:none;stroke:#f6f6f6;stroke-width:0.79375;stroke-linecap:butt;stroke-linejoin:miter;stroke-miterlimit:4;stroke-dasharray:none;stroke-opacity:1"
       d="M 264.58331,1058.3333 V 793.74997 1e-5"
       id="path3774-7-3" />
    <path
       id="rect4607"
       style="fill:#ffffff;stroke-width:3"
       d="M -100,-100 V 0 4000 4100 H 0 4100 V 4000 -100 H 0 Z M 0,0 H 4000 V 4000 H 0 Z"
       transform="scale(0.26458333)" />
    <path
       style="fill:none;stroke:#ffffff;stroke-width:0.79375;stroke-linecap:butt;stroke-linejoin:miter;stroke-miterlimit:4;stroke-dasharray:none;stroke-opacity:0.5"
       d="M 132.29167,0 V 1058.3333"
       id="path4859" />
    <path
       style="fill:none;stroke:#ffffff;stroke-width:0.79375;stroke-linecap:butt;stroke-linejoin:miter;stroke-miterlimit:4;stroke-dasharray:none;stroke-opacity:0.5"
       d="M 396.87501,0 V 1058.3333"
       id="path4859-5" />
    <path
       style="fill:none;stroke:#ffffff;stroke-width:0.79375;stroke-linecap:butt;stroke-linejoin:miter;stroke-miterlimit:4;stroke-dasharray:none;stroke-opacity:0.5"
       d="M 661.45835,0 V 1058.3333"
       id="path4859-6" />
    <path
       style="fill:none;stroke:#ffffff;stroke-width:0.79375;stroke-linecap:butt;stroke-linejoin:miter;stroke-miterlimit:4;stroke-dasharray:none;stroke-opacity:0.5"
       d="M 926.04169,0 V 1058.3333"
       id="path4859-2" />
    <path
       style="fill:none;stroke:#ffffff;stroke-width:0.79375;stroke-linecap:butt;stroke-linejoin:miter;stroke-miterlimit:4;stroke-dasharray:none;stroke-opacity:0.5"
       d="M 1058.3333,132.29164 H 3e-5"
       id="path4859-0" />
    <path
       style="fill:none;stroke:#ffffff;stroke-width:0.79375;stroke-linecap:butt;stroke-linejoin:miter;stroke-miterlimit:4;stroke-dasharray:none;stroke-opacity:0.5"
       d="M 1058.3333,396.87498 H 3e-5"
       id="path4859-5-9" />
    <path
       style="fill:none;stroke:#ffffff;stroke-width:0.79375;stroke-linecap:butt;stroke-linejoin:miter;stroke-miterlimit:4;stroke-dasharray:none;stroke-opacity:0.5"
       d="M 1058.3333,661.45832 H 3e-5"
       id="path4859-6-3" />
    <path
       style="fill:none;stroke:#ffffff;stroke-width:0.79375;stroke-linecap:butt;stroke-linejoin:miter;stroke-miterlimit:4;stroke-dasharray:none;stroke-opacity:0.5"
       d="M 1058.3333,926.04166 H 3e-5"
       id="path4859-2-6" />
  </g>
  <g
     id="layer1"
     inkscape:groupmode="layer"
     inkscape:label="Markers and Radii"
     style="display:none">
    <circle
       style="fill:#ff0000;fill-opacity:1;stroke-width:1;stroke-dasharray:1, 3"
       id="path1251"
       cx="529.16669"
       cy="529.16669"
       r="1.0583333" />
    <circle
       style="fill:#ff0000;fill-opacity:1;stroke-width:1;stroke-dasharray:1, 3"
       id="path1251-3"
       cx="317.50003"
       cy="529.16669"
       r="1.0583333" />
    <circle
       style="fill:#ff0000;fill-opacity:1;stroke-width:1;stroke-dasharray:1, 3"
       id="path1251-6"
       cx="529.16669"
       cy="317.50003"
       r="1.0583333" />
    <circle
       style="fill:none;stroke:#ff0c00;stroke-width:26.4583;stroke-miterlimit:4;stroke-dasharray:none;stroke-dashoffset:0;stroke-opacity:1"
       id="path1624-7"
       cx="-876.29999"
       cy="419.10001"
       r="27.257433" />
    <text
       xml:space="preserve"
       style="font-style:normal;font-weight:normal;font-size:10.5833px;line-height:1.25;font-family:sans-serif;letter-spacing:0px;word-spacing:0px;fill:#000000;fill-opacity:1;stroke:none;stroke-width:0.264583"
       x="532.34442"
       y="529.18091"
       id="text26171"><tspan
         sodipodi:role="line"
         id="tspan26169"
         style="font-style:normal;font-variant:normal;font-weight:normal;font-stretch:normal;font-family:Barlow;-inkscape-font-specification:Barlow;fill:#ff0000;stroke-width:0.264583"
         x="532.34442"
         y="529.18091">0</tspan></text>
    <text
       xml:space="preserve"
       style="font-style:normal;font-weight:normal;font-size:10.5833px;line-height:1.25;font-family:sans-serif;letter-spacing:0px;word-spacing:0px;fill:#000000;fill-opacity:1;stroke:none;stroke-width:0.264583"
       x="320.67255"
       y="529.15607"
       id="text26171-3"><tspan
         sodipodi:role="line"
         id="tspan26169-6"
         style="font-style:normal;font-variant:normal;font-weight:normal;font-stretch:normal;font-family:Barlow;-inkscape-font-specification:Barlow;fill:#ff0000;stroke-width:0.264583"
         x="320.67255"
         y="529.15607">W</tspan></text>
    <text
       xml:space="preserve"
       style="font-style:normal;font-weight:normal;font-size:10.5833px;line-height:1.25;font-family:sans-serif;letter-spacing:0px;word-spacing:0px;fill:#000000;fill-opacity:1;stroke:none;stroke-width:0.264583"
       x="532.35016"
       y="317.51089"
       id="text26171-6"><tspan
         sodipodi:role="line"
         id="tspan26169-2"
         style="font-style:normal;font-variant:normal;font-weight:normal;font-stretch:normal;font-family:Barlow;-inkscape-font-specification:Barlow;fill:#ff0000;stroke-width:0.264583"
         x="532.35016"
         y="317.51089">N</tspan></text>
  </g>
  <g
     inkscape:groupmode="layer"
     id="layer5"
     inkscape:label="Leviathans"
     style="display:none">
    <text
       xml:space="preserve"
       style="font-style:normal;font-weight:normal;font-size:33.8667px;line-height:1.25;font-family:sans-serif;letter-spacing:0px;word-spacing:0px;fill:#000000;fill-opacity:1;stroke:none;stroke-width:0.264583"
       x="361.39291"
       y="125.69974"
       id="text5628"><tspan
         sodipodi:role="line"
         id="tspan5626"
         style="font-size:33.8667px;fill:#55ddff;stroke-width:0.264583"
         x="361.39291"
         y="125.69974">✘</tspan></text>
    <text
       xml:space="preserve"
       style="font-style:normal;font-weight:normal;font-size:33.8667px;line-height:1.25;font-family:sans-serif;letter-spacing:0px;word-spacing:0px;fill:#d35f5f;fill-opacity:1;stroke:none;stroke-width:0.264583"
       x="832.57825"
       y="342.30994"
       id="text5628-5"><tspan
         sodipodi:role="line"
         id="tspan5626-3"
         style="font-size:33.8667px;fill:#d35f5f;stroke-width:0.264583"
         x="832.57825"
         y="342.30994">✘</tspan></text>
    <text
       xml:space="preserve"
       style="font-style:normal;font-weight:normal;font-size:33.8667px;line-height:1.25;font-family:sans-serif;letter-spacing:0px;word-spacing:0px;fill:#d35f5f;fill-opacity:1;stroke:none;stroke-width:0.264583"
       x="642.20978"
       y="535.82068"
       id="text5628-5-5"><tspan
         sodipodi:role="line"
         id="tspan5626-3-6"
         style="font-size:33.8667px;fill:#d35f5f;stroke-width:0.264583"
         x="642.20978"
         y="535.82068">✘</tspan></text>
    <text
       xml:space="preserve"
       style="font-style:normal;font-weight:normal;font-size:33.8667px;line-height:1.25;font-family:sans-serif;letter-spacing:0px;word-spacing:0px;display:inline;fill:#d35f5f;fill-opacity:1;stroke:none;stroke-width:0.264583"
       x="674.72058"
       y="166.30717"
       id="text5628-5-6"><tspan
         sodipodi:role="line"
         id="tspan5626-3-2"
         style="font-size:33.8667px;fill:#d35f5f;stroke-width:0.264583"
         x="674.72058"
         y="166.30717">✘</tspan></text>
    <text
       xml:space="preserve"
       style="font-style:normal;font-weight:normal;font-size:33.8667px;line-height:1.25;font-family:sans-serif;letter-spacing:0px;word-spacing:0px;display:inline;fill:#000000;fill-opacity:1;stroke:none;stroke-width:0.264583"
       x="427.14722"
       y="825.18451"
       id="text5628-3"><tspan
         sodipodi:role="line"
         id="tspan5626-5"
         style="font-size:33.8667px;fill:#55ddff;stroke-width:0.264583"
         x="427.14722"
         y="825.18451">✘</tspan></text>
  </g>
  <g
     inkscape:groupmode="layer"
     id="layer8"
     inkscape:label="OFFSET"
     style="display:none">
    <circle
       style="display:inline;fill:#ff0000;fill-opacity:1;stroke-width:1;stroke-dasharray:1, 3"
       id="path1251-9"
       cx="1.0583333"
       cy="1.0583333"
       r="1.0583333" />
  </g>
</svg>
